<?xml version="1.0" encoding="iso-8859-1"?>
<!-- Uploaded to: SVG Repo, www.svgrepo.com, Generator: SVG Repo Mixer Tools -->
<svg fill="#000000" height="800px" width="800px" version="1.1" id="Layer_1" xmlns="http://www.w3.org/2000/svg" xmlns:xlink="http://www.w3.org/1999/xlink" 
	 viewBox="0 0 492.257 492.257" xml:space="preserve">
<g>
	<g>
		<polygon points="438.173,345.518 424.25,331.595 391.976,363.869 359.702,331.595 345.779,345.518 378.053,377.792 
			345.779,410.066 359.702,423.989 391.976,391.715 424.25,423.989 438.173,410.066 405.899,377.792 		"/>
	</g>
</g>
<g>
	<g>
		<path d="M217.702,14.181c-59.529,0-107.952,48.428-107.952,107.957c0,59.529,48.423,107.957,107.952,107.957
			c59.529,0,107.962-48.428,107.962-107.957C325.663,62.609,277.231,14.181,217.702,14.181z M217.702,210.403
			c-48.663,0-88.26-39.596-88.26-88.264s39.596-88.264,88.26-88.264c48.673,0,88.269,39.596,88.269,88.264
			S266.375,210.403,217.702,210.403z"/>
	</g>
</g>
<g>
	<g>
		<path d="M462.913,306.845c-19.501-19.501-45.101-29.269-70.719-29.326c-14.576-19.547-32.04-36.501-52.214-50.208
			c-1.596-1.096-4.846-3.207-4.846-3.207l-7.865-5.115l-5.49,7.615c-24.096,33.462-63.01,53.442-104.077,53.442
			c-41.058,0-79.962-19.981-104.077-53.452l-5.5-7.639l-11.904,7.813C35.971,267.355,0,334.903,0,407.46v31.644h312.664
			c2.578,3.331,5.31,6.58,8.365,9.635c19.558,19.558,45.25,29.337,70.942,29.337c25.692,0,51.385-9.779,70.942-29.337
			C502.038,409.624,502.038,345.96,462.913,306.845z M19.692,419.412V407.46c0-64.481,31.24-124.615,83.788-161.779
			c28.019,34.019,70.038,54.058,114.221,54.058c44.202,0,86.221-20.048,114.221-54.053c13.975,9.874,26.507,21.435,37.458,34.488
			c-17.726,4.071-34.572,12.891-48.352,26.671c-30.4,30.392-37.067,75.565-20.226,112.567H19.692z M448.99,434.816
			c-31.442,31.442-82.596,31.442-114.039,0c-31.442-31.442-31.442-82.606,0-114.048c15.721-15.721,36.365-23.577,57.019-23.577
			c20.654,0,41.298,7.856,57.019,23.577C480.433,352.21,480.433,403.374,448.99,434.816z"/>
	</g>
</g>
</svg>